<svg xmlns="http://www.w3.org/2000/svg" viewBox="0 0 100 100">
  <path d="M15.37 63.55L15.37 63.22L15.39 62.88L15.41 62.54L15.43 62.21L15.46 61.87L15.50 61.54L15.54 61.20L15.58 60.87L15.63 60.54L15.67 60.21L15.72 59.88L15.77 59.56L15.81 59.24L15.86 58.92L15.90 58.60L15.94 58.28L15.97 57.97L16.00 57.66L16.03 57.35L16.05 57.05L16.07 56.74L16.08 56.44L16.09 56.14L16.09 55.84L16.09 55.54L16.09 55.24L16.08 54.94L16.07 54.64L16.06 54.35L16.04 54.05L16.02 53.76L16.00 53.46L15.98 53.16L15.96 52.87L15.94 52.57L15.92 52.27L15.90 51.98L15.89 51.68L15.87 51.38L15.86 51.08L15.85 50.78L15.84 50.49L15.84 50.19L15.84 49.89L15.84 49.59L15.85 49.29L15.86 48.99L15.88 48.69L15.90 48.39L15.92 48.10L15.95 47.80L15.97 47.50L16.01 47.20L16.04 46.91L16.08 46.61L16.11 46.31L16.15 46.01L16.19 45.72L16.24 45.42L16.28 45.12L16.32 44.82L16.36 44.53L16.41 44.23L16.45 43.93L16.49 43.63L16.53 43.33L16.57 43.03L16.61 42.73L16.65 42.42L16.69 42.12L16.73 41.81L16.77 41.51L16.81 41.20L16.85 40.89L16.89 40.59L16.93 40.28L16.97 39.97L17.02 39.66L17.07 39.35L17.12 39.04L17.17 38.72L17.23 38.41L17.29 38.10L17.36 37.80L17.43 37.49L17.51 37.18L17.59 36.88L17.68 36.57L17.77 36.27L17.87 35.97L17.98 35.67L18.09 35.38L18.21 35.09L18.33 34.80L18.46 34.51L18.59 34.22L18.73 33.94L18.88 33.66L19.03 33.38L19.18 33.11L19.33 32.83L19.49 32.56L19.66 32.29L19.82 32.02L19.98 31.75L20.15 31.48L20.32 31.21L20.49 30.95L20.65 30.68L20.82 30.41L20.98 30.13L21.15 29.86L21.31 29.58L21.47 29.31L21.63 29.03L21.79 28.74L21.94 28.46L22.09 28.17L22.25 27.88L22.40 27.58L22.54 27.28L22.69 26.98L22.84 26.68L22.99 26.37L23.14 26.07L23.29 25.76L23.44 25.45L23.59 25.14L23.75 24.83L23.91 24.51L24.07 24.21L24.24 23.90L24.41 23.60L24.59 23.30L24.78 23.00L24.97 22.71L25.17 22.42L25.38 22.14L25.59 21.87L25.81 21.61L26.04 21.35L26.28 21.11L26.53 20.87L26.79 20.65L27.05 20.43L27.32 20.23L27.60 20.03L27.89 19.85L28.19 19.68L28.49 19.52L28.80 19.37L29.11 19.24L29.43 19.11L29.76 18.99L30.09 18.89L30.42 18.79L30.76 18.70L31.10 18.62L31.44 18.55L31.79 18.49L32.03 18.45L32.63 18.94L34.11 20.29L35.50 21.77L36.77 23.39L37.95 25.13L39.08 26.93L40.24 28.70L41.49 30.34L42.91 31.77L44.55 32.92L46.43 33.76L48.53 34.33L50.78 34.70L53.10 34.97L55.41 35.27L57.60 35.71L59.62 36.37L61.43 37.31L63.02 38.52L64.44 39.95L65.73 41.54L66.99 43.19L68.26 44.81L69.60 46.34L71.04 47.75L72.56 49.05L74.12 50.30L75.68 51.55L77.18 52.88L78.56 54.36L79.82 56.00L80.95 57.80L82.00 59.70L83.04 61.62L84.15 63.46L84.53 63.95L84.44 64.18L84.34 64.49L84.24 64.79L84.13 65.09L84.03 65.39L83.92 65.69L83.82 66.00L83.71 66.30L83.59 66.60L83.48 66.90L83.36 67.19L83.23 67.49L83.10 67.78L82.96 68.07L82.82 68.35L82.67 68.64L82.51 68.92L82.35 69.19L82.17 69.46L81.99 69.73L81.80 69.99L81.61 70.24L81.40 70.49L81.19 70.74L80.98 70.98L80.75 71.21L80.52 71.44L80.28 71.66L80.04 71.88L79.79 72.09L79.54 72.30L79.28 72.50L79.02 72.70L78.76 72.89L78.50 73.08L78.23 73.27L77.96 73.46L77.69 73.64L77.43 73.82L77.16 73.99L76.89 74.17L76.62 74.34L76.36 74.52L76.10 74.69L75.84 74.86L75.58 75.03L75.32 75.21L75.06 75.38L74.81 75.55L74.56 75.72L74.31 75.90L74.07 76.07L73.82 76.25L73.58 76.42L73.34 76.60L73.10 76.78L72.86 76.95L72.62 77.13L72.38 77.31L72.14 77.49L71.91 77.66L71.67 77.84L71.43 78.01L71.19 78.19L70.96 78.36L70.72 78.53L70.48 78.70L70.24 78.87L69.99 79.04L69.75 79.21L69.51 79.37L69.26 79.53L69.02 79.70L68.77 79.86L68.53 80.02L68.28 80.18L68.04 80.34L67.79 80.50L67.54 80.66L67.30 80.82L67.05 80.98L66.81 81.14L66.56 81.30L66.32 81.47L66.07 81.64L65.83 81.81L65.59 81.99L65.35 82.16L65.11 82.35L64.87 82.53L64.63 82.72L64.40 82.91L64.16 83.11L63.92 83.31L63.68 83.52L63.45 83.73L63.21 83.94L62.97 84.15L62.73 84.37L62.49 84.59L62.25 84.81L62.00 85.03L61.75 85.25L61.50 85.48L61.25 85.70L61.00 85.92L60.74 86.13L60.48 86.34L60.21 86.55L59.94 86.75L59.67 86.95L59.39 87.14L59.11 87.32L58.82 87.49L58.53 87.65L58.24 87.81L57.94 87.95L57.64 88.08L57.34 88.20L57.03 88.31L56.72 88.41L56.41 88.50L56.09 88.57L55.78 88.64L55.46 88.69L55.13 88.73L54.81 88.76L54.49 88.78L54.16 88.79L53.84 88.79L53.51 88.79L53.19 88.77L52.86 88.75L52.54 88.72L52.21 88.69L51.89 88.66L51.57 88.62L51.25 88.57L50.93 88.53L50.61 88.48L50.29 88.44L49.97 88.39L49.65 88.35L49.33 88.31L49.02 88.27L48.70 88.23L48.39 88.20L48.07 88.17L47.76 88.14L47.44 88.12L47.13 88.10L46.81 88.08L46.49 88.07L46.18 88.06L45.86 88.05L45.54 88.05L45.22 88.05L44.90 88.05L44.58 88.05L44.26 88.05L43.93 88.05L43.61 88.05L43.28 88.04L42.96 88.04L42.63 88.03L42.31 88.02L41.98 88.00L41.66 87.98L41.33 87.95L41.01 87.92L40.68 87.88L40.36 87.83L40.04 87.78L39.72 87.72L39.40 87.65L39.09 87.57L38.77 87.49L38.46 87.40L38.15 87.30L37.84 87.19L37.54 87.08L37.23 86.96L36.94 86.84L36.64 86.70L36.34 86.57L36.05 86.42L35.76 86.27L35.47 86.12L35.19 85.97L34.91 85.81L34.63 85.64L34.35 85.48L34.07 85.31L33.79 85.14L33.52 84.97L33.24 84.80L32.97 84.63L32.70 84.45L32.43 84.28L32.16 84.10L31.89 83.93L31.62 83.75L31.35 83.58L31.09 83.40L30.82 83.22L30.55 83.04L30.29 82.87L30.03 82.68L29.76 82.50L29.50 82.32L29.24 82.13L28.98 81.95L28.73 81.75L28.47 81.56L28.22 81.37L27.97 81.17L27.73 80.96L27.48 80.76L27.24 80.55L27.00 80.33L26.77 80.12L26.54 79.90L26.31 79.67L26.09 79.44L25.87 79.21L25.66 78.98L25.44 78.74L25.23 78.50L25.03 78.26L24.82 78.01L24.62 77.77L24.42 77.52L24.23 77.27L24.03 77.02L23.84 76.77L23.65 76.52L23.45 76.27L23.26 76.02L23.07 75.78L22.87 75.53L22.68 75.28L22.48 75.04L22.28 74.80L22.08 74.56L21.88 74.32L21.68 74.08L21.47 73.85L21.26 73.61L21.04 73.38L20.83 73.15L20.61 72.92L20.38 72.69L20.16 72.46L19.94 72.23L19.71 72.00L19.48 71.78L19.25 71.54L19.02 71.31L18.80 71.08L18.57 70.84L18.35 70.60L18.13 70.36L17.91 70.11L17.70 69.86L17.49 69.61L17.29 69.35L17.10 69.09L16.91 68.82L16.74 68.54L16.57 68.27L16.41 67.98L16.26 67.69L16.13 67.40L16.00 67.10L15.89 66.80L15.78 66.49L15.69 66.17L15.61 65.86L15.54 65.54L15.49 65.21L15.44 64.88L15.41 64.55L15.39 64.22L15.37 63.89L15.37 63.55Z" fill="#f2c14e"/>
  <path d="M34.49 15.30L34.59 15.28L34.94 15.23L35.29 15.18L35.63 15.14L35.98 15.10L36.33 15.06L36.67 15.02L37.01 14.99L37.35 14.96L37.69 14.93L38.03 14.89L38.36 14.86L38.70 14.83L39.03 14.79L39.35 14.76L39.68 14.72L40.00 14.68L40.33 14.64L40.64 14.59L40.96 14.55L41.28 14.50L41.59 14.46L41.91 14.41L42.22 14.36L42.53 14.31L42.85 14.26L43.16 14.21L43.47 14.16L43.78 14.11L44.09 14.06L44.40 14.02L44.71 13.98L45.02 13.94L45.33 13.90L45.64 13.86L45.95 13.83L46.26 13.80L46.57 13.78L46.88 13.76L47.19 13.74L47.50 13.72L47.81 13.71L48.12 13.70L48.43 13.69L48.74 13.69L49.05 13.69L49.36 13.69L49.67 13.69L49.98 13.70L50.28 13.70L50.59 13.71L50.90 13.72L51.21 13.72L51.51 13.73L51.82 13.74L52.13 13.74L52.43 13.75L52.74 13.75L53.04 13.76L53.35 13.76L53.66 13.76L53.96 13.76L54.27 13.76L54.58 13.76L54.88 13.76L55.19 13.75L55.50 13.75L55.81 13.75L56.12 13.75L56.43 13.76L56.74 13.76L57.05 13.77L57.36 13.78L57.67 13.79L57.98 13.81L58.29 13.83L58.60 13.86L58.91 13.89L59.21 13.93L59.52 13.98L59.83 14.03L60.13 14.09L60.43 14.16L60.73 14.24L61.03 14.32L61.33 14.41L61.62 14.51L61.92 14.62L62.21 14.73L62.49 14.86L62.78 14.98L63.06 15.12L63.34 15.26L63.61 15.40L63.89 15.55L64.16 15.71L64.43 15.86L64.70 16.02L64.96 16.18L65.23 16.35L65.49 16.51L65.75 16.67L66.01 16.83L66.27 16.99L66.53 17.15L66.79 17.31L67.06 17.46L67.32 17.61L67.58 17.76L67.85 17.90L68.12 18.04L68.39 18.17L68.66 18.30L68.94 18.42L69.22 18.54L69.50 18.66L69.78 18.77L70.07 18.88L70.36 18.98L70.65 19.09L70.95 19.19L71.25 19.29L71.55 19.39L71.85 19.49L72.15 19.59L72.45 19.69L72.75 19.80L73.06 19.91L73.36 20.02L73.66 20.14L73.96 20.26L74.25 20.38L74.55 20.52L74.84 20.66L75.12 20.80L75.40 20.96L75.68 21.12L75.95 21.29L76.21 21.47L76.47 21.65L76.72 21.85L76.97 22.05L77.20 22.26L77.44 22.48L77.66 22.70L77.87 22.93L78.08 23.17L78.29 23.42L78.48 23.67L78.67 23.93L78.85 24.19L79.03 24.45L79.20 24.72L79.37 24.99L79.53 25.27L79.69 25.55L79.84 25.82L79.99 26.10L80.14 26.38L80.29 26.67L80.43 26.95L80.58 27.22L80.72 27.50L80.87 27.78L81.01 28.06L81.16 28.33L81.31 28.61L81.45 28.88L81.60 29.15L81.76 29.41L81.91 29.68L82.06 29.95L82.22 30.21L82.38 30.47L82.54 30.73L82.70 31.00L82.86 31.26L83.02 31.52L83.19 31.77L83.35 32.03L83.52 32.29L83.68 32.56L83.85 32.82L84.01 33.08L84.17 33.34L84.34 33.61L84.50 33.87L84.65 34.14L84.81 34.41L84.97 34.68L85.12 34.95L85.27 35.22L85.42 35.50L85.56 35.77L85.70 36.05L85.85 36.33L85.99 36.61L86.12 36.89L86.26 37.18L86.39 37.46L86.53 37.75L86.66 38.03L86.79 38.32L86.92 38.61L87.05 38.90L87.19 39.19L87.32 39.48L87.45 39.77L87.59 40.06L87.72 40.35L87.86 40.65L88.00 40.94L88.13 41.23L88.27 41.53L88.42 41.83L88.56 42.13L88.70 42.43L88.84 42.73L88.99 43.03L89.13 43.34L89.27 43.65L89.41 43.96L89.55 44.27L89.68 44.58L89.82 44.89L89.94 45.21L90.07 45.53L90.18 45.85L90.29 46.18L90.40 46.50L90.49 46.83L90.58 47.16L90.66 47.49L90.73 47.82L90.79 48.15L90.84 48.49L90.87 48.82L90.90 49.16L90.91 49.50L90.91 49.83L90.90 50.17L90.88 50.50L90.85 50.84L90.80 51.17L90.75 51.50L90.68 51.83L90.60 52.16L90.51 52.49L90.42 52.82L90.31 53.14L90.20 53.46L90.08 53.78L89.95 54.10L89.82 54.41L89.68 54.72L89.54 55.03L89.39 55.34L89.25 55.65L89.10 55.95L88.95 56.25L88.81 56.56L88.66 56.86L88.52 57.15L88.37 57.45L88.23 57.75L88.10 58.05L87.96 58.34L87.83 58.64L87.70 58.94L87.58 59.24L87.46 59.53L87.35 59.83L87.23 60.13L87.12 60.43L87.01 60.73L86.99 60.80L86.61 60.30L85.50 58.47L84.46 56.55L83.41 54.65L82.28 52.85L81.03 51.21L79.64 49.73L78.15 48.40L76.59 47.15L75.02 45.90L73.50 44.60L72.06 43.19L70.72 41.66L69.45 40.04L68.20 38.39L66.90 36.80L65.49 35.36L63.89 34.15L62.09 33.22L60.07 32.55L57.87 32.12L55.56 31.82L53.24 31.55L50.99 31.18L48.90 30.61L47.02 29.77L45.37 28.62L43.95 27.19L42.70 25.55L41.55 23.77L40.41 21.97L39.24 20.23L37.96 18.62L36.57 17.14L35.09 15.79L34.49 15.30Z" fill="#4a5468"/>
</svg>
