<svg xmlns="http://www.w3.org/2000/svg" viewBox="0 0 100 100">
  <path d="M83.92 52.37L83.81 53.55L83.67 54.73L83.48 55.90L83.26 57.07L82.99 58.23L82.68 59.37L82.34 60.51L81.95 61.63L81.52 62.74L81.06 63.83L80.56 64.90L80.02 65.96L79.44 67.00L78.83 68.02L78.19 69.01L77.51 69.98L76.79 70.93L76.05 71.85L75.27 72.75L74.46 73.62L73.62 74.46L72.75 75.27L71.85 76.05L70.93 76.79L69.98 77.51L69.01 78.19L68.02 78.83L67.00 79.44L65.96 80.02L64.90 80.56L63.83 81.06L62.74 81.52L61.63 81.95L60.51 82.34L59.37 82.68L58.23 82.99L57.07 83.26L55.90 83.48L54.73 83.67L53.55 83.81L52.37 83.92L51.19 83.98L50.00 84.00L48.81 83.98L47.63 83.92L46.45 83.81L45.27 83.67L44.10 83.48L42.93 83.26L41.77 82.99L40.63 82.68L39.49 82.34L38.37 81.95L37.26 81.52L36.17 81.06L35.10 80.56L34.04 80.02L33.00 79.44L31.98 78.83L30.99 78.19L30.02 77.51L29.07 76.79L28.15 76.05L27.25 75.27L26.38 74.46L25.54 73.62L24.73 72.75L23.95 71.85L23.21 70.93L22.49 69.98L21.81 69.01L21.17 68.02L20.56 67.00L19.98 65.96L19.44 64.90L18.94 63.83L18.48 62.74L18.05 61.63L17.66 60.51L17.32 59.37L17.01 58.23L16.74 57.07L16.52 55.90L16.33 54.73L16.19 53.55L16.08 52.37L16.02 51.19L16.00 50.00L16.02 48.81L16.08 47.63L16.19 46.45L16.33 45.27L16.52 44.10L16.74 42.93L17.01 41.77L17.32 40.63L17.66 39.49L18.05 38.37L18.48 37.26L18.94 36.17L19.44 35.10L19.98 34.04L20.56 33.00L21.17 31.98L21.81 30.99L22.49 30.02L23.21 29.07L23.95 28.15L24.73 27.25L25.54 26.38L26.38 25.54L27.25 24.73L28.15 23.95L29.07 23.21L30.02 22.49L30.99 21.81L31.98 21.17L33.00 20.56L34.04 19.98L35.10 19.44L36.17 18.94L37.26 18.48L38.37 18.05L39.49 17.66L40.63 17.32L41.77 17.01L42.93 16.74L44.10 16.52L45.27 16.33L46.45 16.19L47.63 16.08L48.81 16.02L50.00 16.00L51.19 16.02L52.37 16.08L53.55 16.19L54.73 16.33L55.90 16.52L53.73 28.83L52.99 28.71L52.25 28.62L51.50 28.55L50.75 28.51L50.00 28.50L49.25 28.51L48.50 28.55L47.75 28.62L47.01 28.71L46.27 28.83L45.53 28.97L44.80 29.14L44.07 29.33L43.36 29.55L42.65 29.80L41.95 30.07L41.26 30.36L40.58 30.68L39.91 31.02L39.25 31.38L38.61 31.77L37.98 32.18L37.36 32.61L36.76 33.06L36.18 33.53L35.61 34.02L35.06 34.53L34.53 35.06L34.02 35.61L33.53 36.18L33.06 36.76L32.61 37.36L32.18 37.98L31.77 38.61L31.38 39.25L31.02 39.91L30.68 40.58L30.36 41.26L30.07 41.95L29.80 42.65L29.55 43.36L29.33 44.07L29.14 44.80L28.97 45.53L28.83 46.27L28.71 47.01L28.62 47.75L28.55 48.50L28.51 49.25L28.50 50.00L28.51 50.75L28.55 51.50L28.62 52.25L28.71 52.99L28.83 53.73L28.97 54.47L29.14 55.20L29.33 55.93L29.55 56.64L29.80 57.35L30.07 58.05L30.36 58.74L30.68 59.42L31.02 60.09L31.38 60.75L31.77 61.39L32.18 62.02L32.61 62.64L33.06 63.24L33.53 63.82L34.02 64.39L34.53 64.94L35.06 65.47L35.61 65.98L36.18 66.47L36.76 66.94L37.36 67.39L37.98 67.82L38.61 68.23L39.25 68.62L39.91 68.98L40.58 69.32L41.26 69.64L41.95 69.93L42.65 70.20L43.36 70.45L44.07 70.67L44.80 70.86L45.53 71.03L46.27 71.17L47.01 71.29L47.75 71.38L48.50 71.45L49.25 71.49L50.00 71.50L50.75 71.49L51.50 71.45L52.25 71.38L52.99 71.29L53.73 71.17L54.47 71.03L55.20 70.86L55.93 70.67L56.64 70.45L57.35 70.20L58.05 69.93L58.74 69.64L59.42 69.32L60.09 68.98L60.75 68.62L61.39 68.23L62.02 67.82L62.64 67.39L63.24 66.94L63.82 66.47L64.39 65.98L64.94 65.47L65.47 64.94L65.98 64.39L66.47 63.82L66.94 63.24L67.39 62.64L67.82 62.02L68.23 61.39L68.62 60.75L68.98 60.09L69.32 59.42L69.64 58.74L69.93 58.05L70.20 57.35L70.45 56.64L70.67 55.93L70.86 55.20L71.03 54.47L71.17 53.73L71.29 52.99L71.38 52.25L71.45 51.50Z" fill="#f2c14e"/>
  <path d="M67.54 13.43L68.65 13.86L69.74 14.32L70.81 14.82L71.87 15.36L72.91 15.94L73.93 16.55L74.92 17.20L75.89 17.88L76.84 18.59L77.76 19.34L78.66 20.12L79.53 20.92L80.37 21.76L81.18 22.63L81.96 23.53L82.70 24.45L83.42 25.40L84.10 26.37L84.74 27.37L85.35 28.38L85.93 29.42L86.47 30.48L86.97 31.55L87.43 32.65L87.86 33.75L88.25 34.88L88.59 36.01L88.90 37.16L89.17 38.31L89.39 39.48L89.58 40.65L89.72 41.83L77.29 43.14L77.20 42.39L77.08 41.65L76.94 40.91L76.77 40.18L76.58 39.46L76.36 38.74L76.11 38.03L75.84 37.33L75.55 36.64L75.23 35.96L74.89 35.29L74.53 34.63L74.14 33.99L73.73 33.36L73.30 32.75L72.85 32.15L72.38 31.56L71.89 31.00L71.38 30.45L70.85 29.92L70.30 29.40L69.73 28.91L69.15 28.44L68.55 27.99L67.93 27.56L67.30 27.15L66.66 26.76L66.00 26.40L65.34 26.06L64.65 25.74L63.96 25.45L63.26 25.18Z" fill="#5b6880"/>
</svg>
